<svg width="29" height="29" viewBox="0 0 29 29" fill="none" xmlns="http://www.w3.org/2000/svg">
<path d="M14.5 0C6.525 0 0 6.525 0 14.5C0 22.475 6.525 29 14.5 29C22.475 29 29 22.475 29 14.5C29 6.525 22.475 0 14.5 0ZM14.409 4.80301C16.0404 4.80301 17.0373 6.16235 17.0373 7.15934C17.0373 8.42801 16.131 9.51566 14.409 9.51566C12.9593 9.51566 11.872 8.24699 11.872 7.15934C11.872 6.16265 12.7783 4.80301 14.409 4.80301ZM18.6687 22.8373H10.3313V19.7563H12.144V14.1373H10.3313V11.0563H16.675V19.7563H18.6687V22.8373Z" fill="white"/>
</svg>
