<svg width="54" height="52" viewBox="0 0 54 52" fill="none" xmlns="http://www.w3.org/2000/svg">
<path d="M19.411 23.7738L18.7979 22.6103L17.6671 23.2816L5.36194 30.5861L3.05504 31.9554L5.58743 32.8409C10.4971 34.5575 17.7777 40.2039 24.0535 47.7964L25.2192 49.2066L26.1091 47.6081C28.2831 43.7033 32.7838 37.6653 37.5911 32.4137C39.9897 29.7933 42.4378 27.3985 44.6814 25.5785C46.9677 23.7237 48.8944 22.5896 50.2658 22.2911L51.7685 21.964L51.1413 20.5599C49.2616 16.3516 49.6628 12.8835 50.1271 8.87015C50.266 7.66875 50.4107 6.4185 50.5014 5.0849L50.6501 2.90131L48.6938 3.88271C40.7425 7.87167 34.3467 15.7762 29.9796 22.5371C27.7826 25.9384 26.0713 29.0944 24.9086 31.4007C24.6413 31.931 24.4029 32.4167 24.194 32.8506L19.411 23.7738Z" stroke="white" stroke-width="2.5"/>
</svg>
