<svg width="46" height="40" viewBox="0 0 46 40" fill="none" xmlns="http://www.w3.org/2000/svg">
<path d="M36.229 0H8.77592C8.4478 0 8.14311 0.171875 7.97123 0.453125L0.135298 13.1719C-0.0756394 13.5156 -0.0365769 13.9609 0.229048 14.2656L21.7915 39.6719C22.1665 40.1094 22.8384 40.1094 23.2134 39.6719L44.7759 14.2656C45.0415 13.9609 45.0728 13.5156 44.8697 13.1719L37.0337 0.453125C36.8619 0.171875 36.5572 0 36.229 0ZM35.1665 2.8125L40.9712 12.5H34.4869L30.0494 2.8125H35.1665ZM26.9556 2.8125L31.3931 12.5H13.604L18.0494 2.8125H26.9556ZM9.83842 2.8125H14.9556L10.5181 12.5H4.03374L9.83842 2.8125ZM4.78374 15H10.4869L16.8775 30L4.78374 15ZM13.5337 15H31.4634L22.5025 35.6094L13.5337 15ZM28.1275 30L34.5181 15H40.2212L28.1275 30Z" fill="white"/>
</svg>
