<svg width="54" height="49" viewBox="0 0 54 49" fill="none" xmlns="http://www.w3.org/2000/svg">
<path d="M0.220085 19.2287L1.28322 18.1463C1.57666 17.8477 2.05292 17.8477 2.34636 18.1463L3.94106 19.7704L8.90799 14.7115C8.37924 12.6721 8.87424 10.4144 10.4446 8.81522L14.6971 4.48465C17.6325 1.49488 21.48 0 25.3275 0C29.1751 0 33.0236 1.49488 35.9589 4.48465L29.522 11.0403C29.9363 12.6395 29.6982 14.3612 28.8282 15.8063L51.9875 37.8276C54.6079 40.3197 54.6791 44.5278 52.1441 47.1099C50.9047 48.3722 49.2828 49 47.6637 49C45.9715 49 44.2802 48.3138 43.0305 46.95L21.1744 23.1066C19.9706 23.5908 18.6581 23.7095 17.4131 23.3745L12.4462 28.4334L14.0409 30.0575C14.1106 30.1285 14.166 30.2128 14.2037 30.3057C14.2415 30.3986 14.2609 30.4981 14.2609 30.5987C14.2609 30.6992 14.2415 30.7988 14.2037 30.8917C14.166 30.9845 14.1106 31.0689 14.0409 31.1399L12.9777 32.2223C12.6843 32.5209 12.208 32.5209 11.9146 32.2223L0.220085 20.312C0.150318 20.2409 0.0949707 20.1565 0.0572052 20.0636C0.0194397 19.9706 0 19.871 0 19.7704C0 19.6697 0.0194397 19.5701 0.0572052 19.4771C0.0949707 19.3842 0.150318 19.2998 0.220085 19.2287ZM45.2281 44.8599C45.8646 45.5547 46.73 45.9375 47.6637 45.9375C48.5525 45.9375 49.3887 45.5844 50.0178 44.9441C50.6619 44.2876 51.0088 43.4157 50.9928 42.4874C50.9769 41.5591 50.6019 40.6997 49.9353 40.0661L26.8379 18.1051L23.6644 21.337L45.2281 44.8599ZM10.3199 26.2667L15.2868 21.2088L16.5093 19.9637L18.1809 20.4135C19.2403 20.6987 20.3222 20.4106 21.075 19.644L25.8591 14.7718C26.6119 14.0052 26.8941 12.9027 26.6147 11.8241L26.1732 10.1216L27.3957 8.87646L31.4401 4.75645C29.6082 3.65203 27.5119 3.0625 25.3275 3.0625C22.1147 3.0625 19.095 4.33727 16.8225 6.65041L12.5699 10.9819C11.8171 11.7485 11.5349 12.851 11.8143 13.9296L12.2558 15.6321L11.0333 16.8772L6.0664 21.9361L10.3199 26.2667Z" fill="white"/>
</svg>
