<svg width="683" height="85" viewBox="0 0 683 85" fill="none" xmlns="http://www.w3.org/2000/svg">
<path fill-rule="evenodd" clip-rule="evenodd" d="M57.7919 74.881H10.5932V0H0V85H57.7919V74.881ZM91.6954 0H81.1021V85H91.6954V0ZM179.287 0H189.645V85H172.932L133.854 13.9286H131.265V85H120.907V0H137.621L176.698 71.0714H179.287V0ZM218.085 0V85H228.678V55.5952L248.923 35.9524H251.512L276.701 85H288L258.457 26.6667L284.822 0H271.875L228.678 42.1429V0H218.085Z" fill="white"/>
<path fill-rule="evenodd" clip-rule="evenodd" d="M457.136 28.9286H471.943L487.221 72.9762H489.806L498.737 0H508.962L498.385 85H481.462L465.832 39.5238H463.247L447.499 85H430.577L420 0H430.342L439.273 72.9762H441.858L457.136 28.9286ZM587.986 85L579.29 58.9286H542.507L533.81 85H522.998L552.026 0H569.888L599.033 85H587.986ZM545.68 49.1667L558.489 10.9524H563.19L575.999 49.1667H545.68ZM619.073 0H654.561C663.649 0 670.661 2.22222 675.596 6.66667C680.532 11.1111 683 17.3413 683 25.3571C683 33.4524 680.532 39.7619 675.596 44.2857C670.661 48.7302 663.649 50.9524 654.561 50.9524H629.649V85H619.073V0ZM652.798 41.4286H629.649V9.52382H652.798C665.803 9.52382 672.306 14.8413 672.306 25.4762C672.306 36.1111 665.803 41.4286 652.798 41.4286Z" fill="white"/>
<path d="M383.778 0.481473L375.447 3.3703L378.444 12.7131L353.624 0L320 18.3074V43L333.491 38.2655L333.399 25.9651L353.624 15.3268L372.948 24.6697L363.298 28.189L366.352 36.8096L393 27.3751L383.778 0.481473Z" fill="white"/>
<path d="M324.223 84.5296L332.555 81.6286L329.558 72.2834L354.37 85L388 66.6991V42L374.518 46.7242L374.61 59.0279L354.37 69.6802L335.044 60.3351L344.695 56.8034L341.64 48.1919L315 57.6175L324.223 84.5296Z" fill="white"/>
</svg>
