<svg width="33" height="23" viewBox="0 0 33 23" fill="none" xmlns="http://www.w3.org/2000/svg">
<path d="M24.2917 6.0625H8.70833C7.94893 6.0625 7.33333 6.6711 7.33333 7.42188V15.5781C7.33333 16.3289 7.94893 16.9375 8.70833 16.9375H24.2917C25.0511 16.9375 25.6667 16.3289 25.6667 15.5781V7.42188C25.6667 6.6711 25.0511 6.0625 24.2917 6.0625ZM23.8333 15.125H9.16667V7.875H23.8333V15.125ZM31.1667 9.6875H33V3.34375C33 1.84221 31.7688 0.625 30.25 0.625H2.75C1.2312 0.625 0 1.84221 0 3.34375V9.6875H1.83333C2.84585 9.6875 3.66667 10.499 3.66667 11.5C3.66667 12.501 2.84585 13.3125 1.83333 13.3125H0V19.6562C0 21.1578 1.2312 22.375 2.75 22.375H30.25C31.7688 22.375 33 21.1578 33 19.6562V13.3125H31.1667C30.1542 13.3125 29.3333 12.501 29.3333 11.5C29.3333 10.499 30.1542 9.6875 31.1667 9.6875ZM31.1667 15.125V19.6562C31.1667 20.156 30.7555 20.5625 30.25 20.5625H2.75C2.24452 20.5625 1.83333 20.156 1.83333 19.6562V15.125C3.85516 15.125 5.5 13.4988 5.5 11.5C5.5 9.50115 3.85516 7.875 1.83333 7.875V3.34375C1.83333 2.84401 2.24452 2.4375 2.75 2.4375H30.25C30.7555 2.4375 31.1667 2.84401 31.1667 3.34375V7.875C29.1448 7.875 27.5 9.50115 27.5 11.5C27.5 13.4988 29.1448 15.125 31.1667 15.125Z" fill="white"/>
</svg>
