<?xml version="1.0" encoding="utf-8"?>
<!-- Generator: Adobe Illustrator 25.0.1, SVG Export Plug-In . SVG Version: 6.00 Build 0)  -->
<svg version="1.1" id="Ebene_1" xmlns="http://www.w3.org/2000/svg" xmlns:xlink="http://www.w3.org/1999/xlink" x="0px" y="0px"
	 width="30px" height="31px" viewBox="0 0 30 31" style="enable-background:new 0 0 30 31;" xml:space="preserve">
<path style="fill:#BDCBDA;" d="M20.2,4.5c-2.4-2.5-5.9-4-10.1-4H2.3V26l4.5,4.5h7.7c7.8,0,13.3-5.2,13.3-12.8c0-3.9-1.2-6.9-3.9-9.6
	L20.2,4.5z M19.4,13.4c0,5.1-3.4,8.5-8.6,8.8V8.7h3.7c1.9,0,3.2,0.3,4.3,1.1C19.1,10.8,19.4,12.1,19.4,13.4z M18.1,8.5l-2.4-2.4
	C16.7,6.7,17.5,7.5,18.1,8.5z M15.1,5.7L18.4,9c-0.2-0.1-0.5-0.2-0.7-0.3l-3.3-3.3C14.6,5.5,14.9,5.6,15.1,5.7z M13.9,5.2l3.4,3.4
	c-0.3-0.1-0.5-0.1-0.7-0.2l-3.5-3.5C13.4,5,13.6,5.1,13.9,5.2z M12.8,4.8l3.5,3.5c-0.3,0-0.6-0.1-0.9-0.1l-3.6-3.6
	C12.1,4.7,12.5,4.7,12.8,4.8z M11.5,4.6l3.6,3.6c-0.2,0-0.5,0-0.7,0H14l-3.7-3.7C10.8,4.5,11.2,4.6,11.5,4.6z M10.1,4.5l3.7,3.7
	h-1.4L8.8,4.5H10.1z M8.5,4.5l3.7,3.7h-1L7.5,4.5H8.5z M7.2,4.5l3.7,3.7h-0.5L6.7,4.5H7.2z M6.5,4.5L6.5,4.5l3.8,3.8v0.9L6.5,5.4
	V4.5z M6.4,12.8l0.5,0.5l0.1-0.1l-0.7-0.7v-0.8l1.1,1.1l0.1-0.1l-1.2-1.2v-1l1.7,1.7L8.3,12l-1.8-1.9V9.3l2.3,2.3l0.1-0.1L6.4,9V8
	l2.9,2.9l0.1-0.1l-3-3V6.8l3.5,3.5l0.1-0.1L6.4,6.6V5.7l3.8,3.8v12.7H6.4V12.8z M6.9,30l-3.8-3.8h0.3L7.2,30H6.9z M7.5,30l-3.8-3.8
	H4L7.8,30H7.5z M8,30l-3.8-3.8h0.4L8.4,30H8z M8.7,30l-3.8-3.8h0.5L9.2,30H8.7z M9.5,30l-3.8-3.8h0.6l3.8,3.8H9.5z M10.3,30
	l-3.8-3.8h0.7l3.8,3.8H10.3z M11.4,30l-3.8-3.8h0.9l3.8,3.8H11.4z M12.5,30l-3.8-3.8h1.1l3.8,3.8H12.5z M14.4,30h-0.5l-3.8-3.8
	c0.4,0,0.8,0,1.2,0l3.8,3.8C14.9,30,14.7,30,14.4,30z M15.4,30l-3.8-3.8c0.4,0,0.9-0.1,1.3-0.2l3.9,3.9C16.3,29.9,15.8,30,15.4,30z
	 M17,29.8l-3.9-3.9c0.5-0.1,1-0.2,1.5-0.3l3.9,3.9C18,29.6,17.5,29.7,17,29.8z M18.6,29.4l-3.9-3.9c0.5-0.1,1-0.3,1.5-0.5l3.9,3.9
	C19.7,29.1,19.1,29.3,18.6,29.4z M20.3,28.8l-3.9-3.9c0.6-0.3,1.1-0.5,1.6-0.8l3.9,3.9C21.4,28.2,20.9,28.5,20.3,28.8z M22.1,27.8
	l-3.9-3.9c0.5-0.4,1.1-0.8,1.6-1.2l3.9,3.9C23.1,27,22.6,27.5,22.1,27.8z M23.8,26.5l-3.9-3.9c0.6-0.5,1.1-1.1,1.5-1.8l3.8,3.8
	C24.8,25.3,24.3,25.9,23.8,26.5z M25.3,24.5l-3.8-3.9c0.5-0.7,1-1.6,1.3-2.5l3.8,3.8C26.2,22.9,25.8,23.8,25.3,24.5z M26.6,21.8
	L22.8,18c0.4-1.1,0.6-2.3,0.7-3.7l3.7,3.7C27.2,19.4,27,20.6,26.6,21.8z M27.3,17.8l-3.7-3.7c0-0.2,0-0.5,0-0.7
	c0-2.3-0.7-4.6-1.6-6.4l1.5,1.5C26,11.1,27.2,13.9,27.3,17.8L27.3,17.8z"/>
</svg>
