<?xml version="1.0" encoding="utf-8"?>
<!-- Generator: Adobe Illustrator 25.0.1, SVG Export Plug-In . SVG Version: 6.00 Build 0)  -->
<svg version="1.1" id="Ebene_1" xmlns="http://www.w3.org/2000/svg" xmlns:xlink="http://www.w3.org/1999/xlink" x="0px" y="0px"
	 width="30px" height="31px" viewBox="0 0 30 31" style="enable-background:new 0 0 30 31;" xml:space="preserve">
<g id="Coin_Gecko_AI">
	<path style="fill:#BDCBDA;" d="M14.9,0C6.6,0,0,6.8,0,15.1C0,23.4,6.8,30,15.1,30c8.3,0,15-6.8,14.9-15.1c0,0,0,0,0,0
		C30,6.6,23.2,0,14.9,0z M15.1,28.9c-7.7,0-13.9-6.1-13.9-13.8c0-7.7,6.1-13.9,13.8-13.9c0,0,0,0,0,0c7.7,0,13.9,6.1,13.9,13.8
		C28.9,22.6,22.7,28.8,15.1,28.9z"/>
	<path style="fill:#FFFFFF;" d="M15.3,2c0.9-0.2,1.8-0.2,2.7,0c0.9,0.1,1.8,0.4,2.5,0.9c0.8,0.4,1.5,1,2.2,1.6
		c0.7,0.6,1.4,1.1,2,1.7c0.7,0.6,1.2,1.3,1.7,2.1c0.5,0.8,0.9,1.6,1.2,2.4c0.6,1.7,0.8,3.5,0.5,5.3h-0.1c-0.3-1.7-0.7-3.4-1.3-5
		c-0.3-0.8-0.6-1.6-1-2.3c-0.4-0.7-0.9-1.5-1.4-2.2c-0.5-0.7-1.1-1.3-1.8-1.8c-0.7-0.5-1.5-0.8-2.3-1.1c-0.8-0.3-1.6-0.6-2.4-0.9
		C17,2.5,16.1,2.3,15.3,2L15.3,2z"/>
	<path style="fill:#BDCBDA;" d="M22,10c-1-0.3-2-0.7-3.1-1.1c-0.1-0.3-0.3-0.6-0.8-1c-0.7-0.6-2-0.6-3.1-0.3
		c-1.2-0.3-2.5-0.4-3.6-0.1c-9.6,2.6-4.2,9.1-7.7,15.6c0.5,1.1,5.9,7.3,13.7,5.6c0,0-2.7-6.4,3.4-9.5C25.7,16.7,29.2,12,22,10z"/>
	<path style="fill:#FFFFFF;" d="M23.2,14.3c0,0.3-0.3,0.6-0.6,0.6c-0.3,0-0.6-0.3-0.6-0.6c0-0.3,0.3-0.6,0.6-0.6
		C23,13.7,23.2,13.9,23.2,14.3z"/>
	<path style="fill:#535A60;" d="M15.1,7.6c0.7,0,3.2,0.9,3.9,1.3C18.4,7.3,16.6,7.1,15.1,7.6L15.1,7.6z"/>
	<path style="fill:#FFFFFF;" d="M15.7,11.6c0,1.5-1.2,2.7-2.7,2.7c-1.5,0-2.7-1.2-2.7-2.7c0-1.5,1.2-2.7,2.7-2.7l0,0
		C14.5,8.9,15.7,10.1,15.7,11.6L15.7,11.6z"/>
	<path style="fill:#535A60;" d="M14.9,11.6c0,1-0.8,1.9-1.9,1.9s-1.9-0.8-1.9-1.9S12,9.7,13,9.7l0,0l0,0
		C14.1,9.7,14.9,10.6,14.9,11.6z"/>
	<path style="fill:#BDCBDA;" d="M25.4,15.4c-2.2,1.5-4.6,2.7-8.2,2.7c-1.6,0-2-1.7-3.1-0.9c-0.6,0.4-2.5,1.4-4.1,1.4s-4.1-1-4.8-4.3
		c-0.3,3.3-0.4,5.8-1.7,8.6c2.5,4,8.5,7.1,13.9,5.8c-0.6-4.1,3-8,5-10.1C23.2,17.8,24.6,16.6,25.4,15.4L25.4,15.4z"/>
	<path style="fill:#535A60;" d="M25.3,15.5c-0.7,0.6-1.5,1.1-2.3,1.5c-0.8,0.4-1.7,0.7-2.6,0.9c-0.9,0.2-1.8,0.4-2.7,0.3
		c-0.9-0.1-1.9-0.4-2.5-1.1l0,0c0.8,0.5,1.6,0.7,2.5,0.7c0.9,0,1.8,0,2.6-0.2c0.9-0.2,1.7-0.4,2.6-0.8
		C23.8,16.5,24.6,16.1,25.3,15.5L25.3,15.5z"/>
</g>
</svg>
