<?xml version="1.0" encoding="utf-8"?>
<!-- Generator: Adobe Illustrator 25.0.1, SVG Export Plug-In . SVG Version: 6.00 Build 0)  -->
<svg version="1.1" id="Ebene_1" xmlns="http://www.w3.org/2000/svg" xmlns:xlink="http://www.w3.org/1999/xlink" x="0px" y="0px"
	 width="30px" height="31px" viewBox="0 0 30 31" style="enable-background:new 0 0 30 31;" xml:space="preserve">
<path style="fill:#BDCBDA;" d="M25.9,18.4c-0.5,0.3-1.1,0.4-1.6,0.1c-0.6-0.3-0.9-1.1-0.9-2.2V13c0-1.6-0.6-2.7-1.7-3
	c-1.8-0.5-3.1,1.6-3.6,2.5L15,17.6v-6.2c0-1.4-0.5-2.3-1.4-2.5C13,8.7,12.2,8.8,11.3,10l-7,11.2c-0.9-1.8-1.4-3.8-1.4-5.8
	C2.9,8.7,8.3,3.2,15,3.2s12.1,5.5,12.1,12.3v0c0,0,0,0,0,0C27.1,16.9,26.7,17.9,25.9,18.4L25.9,18.4z M29.8,15.5L29.8,15.5
	c-0.1-8.3-6.7-15-14.8-15S0.2,7.2,0.2,15.5s6.6,15,14.8,15c3.7,0,7.3-1.4,10-4c0.5-0.5,0.6-1.4,0.1-1.9c-0.5-0.5-1.3-0.6-1.9-0.1
	c0,0,0,0,0,0C18.4,29,10.9,28.8,6.3,24c-0.1-0.1-0.2-0.2-0.3-0.4l6.3-10.1v4.7c0,2.2,0.9,3,1.6,3.2c0.7,0.2,1.8,0.1,3-1.8l3.5-5.6
	c0.1-0.2,0.2-0.3,0.3-0.5v2.9c0,2.1,0.8,3.8,2.3,4.6c1.4,0.7,3,0.7,4.3-0.2C29,19.7,29.9,17.8,29.8,15.5L29.8,15.5z"/>
</svg>
