<svg width="38" height="38" viewBox="0 0 38 38" fill="none" xmlns="http://www.w3.org/2000/svg">
<path d="M18.958 38C29.429 38 37.917 29.4934 37.917 19C37.917 8.5066 29.429 0 18.958 0C8.488 0 0 8.5066 0 19C0 29.4934 8.488 38 18.958 38Z" fill="url(#paint0_linear)"/>
<path d="M25.523 9.46231L23.645 10.121L24.321 12.2514L18.726 9.35251L11.146 13.527V19.1575L14.188 18.0779L14.167 15.2731L18.726 12.8474L23.082 14.9777L20.906 15.7803L21.595 17.7459L27.602 15.5946L25.523 9.46231Z" fill="white"/>
<path d="M11.9181 28.3928L13.7961 27.7315L13.1201 25.6011L18.7131 28.5L26.2921 24.3281V18.6978L23.2531 19.7747L23.2741 22.5795L18.7131 25.0078L14.3571 22.8774L16.5321 22.0723L15.8441 20.1092L9.83911 22.2578L11.9181 28.3928Z" fill="white"/>
<defs>
<linearGradient id="paint0_linear" x1="-18.9169" y1="19.0416" x2="19.1658" y2="56.8749" gradientUnits="userSpaceOnUse">
<stop stop-color="#789DFF"/>
<stop offset="1" stop-color="#2652C4"/>
</linearGradient>
</defs>
</svg>
