<svg width="60" height="45" viewBox="0 0 60 45" fill="none" xmlns="http://www.w3.org/2000/svg">
<path fill-rule="evenodd" clip-rule="evenodd" d="M24.375 39.1833V37.1719C25.0406 37.2445 25.7074 37.3051 26.375 37.3538C27.5813 37.4417 28.7902 37.4905 30 37.5C31.2098 37.4905 32.4187 37.4417 33.625 37.3538C34.2926 37.3051 34.9594 37.2445 35.625 37.1719V39.1833V44.6824C33.7945 44.8594 31.9348 45 30 45C28.0652 45 26.2055 44.8594 24.375 44.6824V39.1833ZM26.375 39.3589V42.8496C27.5738 42.9407 28.7749 43 30 43C31.2251 43 32.4262 42.9407 33.625 42.8496V39.3589C32.4239 39.4434 31.2202 39.4905 30.0157 39.4999L30 39.5001L29.9843 39.4999C28.7798 39.4905 27.5762 39.4434 26.375 39.3589ZM5.625 38.7105V36.2048V31.1719C4.30703 30.3328 3.08501 29.4371 2 28.4771C1.26648 27.8281 0.595585 27.1498 0 26.4398V29.3546V30C0 32.5792 1.32502 34.9987 3.625 37.1144C4.22697 37.6681 4.89573 38.201 5.625 38.7105ZM3.625 34.1934V32.2502C3.1122 31.9016 2.61165 31.5415 2.12646 31.1692C2.34203 32.1694 2.83555 33.1862 3.625 34.1934ZM50.2305 27.0655C55.3716 24.1745 58 20.493 58 16.875C58 13.257 55.3716 9.57553 50.2305 6.68449C45.152 3.82871 38.0027 2 30 2C21.9973 2 14.848 3.82871 9.76951 6.68449C4.62836 9.57553 2 13.257 2 16.875C2 20.493 4.62836 24.1745 9.76951 27.0655C14.848 29.9213 21.9973 31.75 30 31.75C38.0027 31.75 45.152 29.9213 50.2305 27.0655ZM20.625 44.216V42.1879V36.6797C17.2912 36.1145 14.1823 35.2555 11.375 34.1416C10.69 33.8698 10.023 33.5828 9.375 33.2812V35.475V40.841C12.0441 42.111 15.1671 43.135 18.625 43.8461C19.2799 43.9808 19.9469 44.1042 20.625 44.216ZM11.375 39.5492C13.5171 40.4637 15.9529 41.2288 18.625 41.8024V38.3421C16.0675 37.8245 13.6389 37.1343 11.375 36.2852V39.5492ZM58 28.4769C56.915 29.4369 55.693 30.3333 54.375 31.173V36.2048V38.7105C55.1046 38.2007 55.7733 37.6679 56.375 37.1147C58.6778 34.9974 60 32.5801 60 30V29.3546V26.441C59.4044 27.15 58.7335 27.828 58 28.4769ZM57.8739 31.169C57.3886 31.5416 56.888 31.902 56.375 32.2509V34.1946C57.1655 33.1867 57.6587 32.1698 57.8739 31.169ZM48.625 39.5515C46.4831 40.4657 44.0474 41.2304 41.375 41.8043V38.3421C43.9325 37.8245 46.3611 37.1343 48.625 36.2852V39.5515ZM48.625 34.1416C49.31 33.8698 49.977 33.5828 50.625 33.2812V35.475V40.8434C47.9559 42.1134 44.8329 43.1365 41.375 43.848C40.7201 43.9828 40.0531 44.1064 39.375 44.2184V42.1902V36.6797C42.7088 36.1145 45.8177 35.2555 48.625 34.1416ZM60 16.875C60 26.1984 46.5621 33.75 30 33.75C13.4379 33.75 0 26.1984 0 16.875C0 7.55156 13.4379 0 30 0C46.5621 0 60 7.55156 60 16.875Z" fill="white"/>
<path d="M43.4285 7.81063L43.2471 7.55544L42.9384 7.60711L39.3437 8.20862L38.5827 8.33596L39.0098 8.97855L39.5912 9.85323L30.1302 7.51461L30.0064 7.48402L29.8831 7.51641L15.3746 11.3284L15.0017 11.4264V11.812V16.9534V17.5452L15.5851 17.4464L21.4065 16.4606L21.8297 16.389L21.823 15.9598L21.7892 13.7938L30.0151 11.7059L35.8531 13.0681L34.0973 13.3771L33.3045 13.5166L33.781 14.1654L35.099 15.9604L35.2818 16.2094L35.5862 16.1573L47.0842 14.1929L47.8684 14.0589L47.4076 13.4104L43.4285 7.81063Z" stroke="white"/>
<path d="M16.5715 26.6204L16.7529 26.8759L17.0619 26.824L20.6566 26.2201L21.417 26.0923L20.9902 25.4502L20.4089 24.5757L29.8648 26.9141L29.9885 26.9447L30.1118 26.9123L44.6203 23.1028L44.9933 23.0048V22.6192V17.4777V16.886L44.41 16.9847L38.5936 17.9681L38.1703 18.0397L38.177 18.4689L38.2108 20.6349L29.9798 22.7252L24.1385 21.3623L25.898 21.0516L26.6907 20.9116L26.2139 20.263L24.8958 18.4704L24.713 18.2218L24.4088 18.2738L12.9159 20.2358L12.1317 20.3697L12.5924 21.0182L16.5715 26.6204Z" stroke="white"/>
</svg>
