<svg width="38" height="28" viewBox="0 0 38 28" fill="none" xmlns="http://www.w3.org/2000/svg">
<path d="M21.7163 6.24067C21.6314 6.15477 21.5253 6.11719 21.4138 6.11719C21.3077 6.11719 21.1963 6.16014 21.1114 6.24067L15.4131 12.0122L12.8398 9.40294C12.7549 9.31704 12.6488 9.27946 12.5374 9.27946C12.4313 9.27946 12.3199 9.32241 12.235 9.40294L11.6354 10.0096C11.4709 10.1761 11.4709 10.4499 11.6354 10.6163L15.1107 14.1329C15.1956 14.2188 15.3017 14.2564 15.4131 14.2564C15.5245 14.2564 15.6306 14.2135 15.7155 14.1329L22.3211 7.44867C22.4856 7.28224 22.4856 7.00842 22.3211 6.84199L21.7163 6.24067ZM32.2587 14.2618H28.8631V2.15496C28.8631 1.25299 28.1043 0.517456 27.1652 0.517456H6.79131C5.8522 0.517456 5.09348 1.25299 5.09348 2.15496V14.2618H1.69783C0.758716 14.2618 0 15.0295 0 15.9798V22.852C0 23.8023 0.758716 24.57 1.69783 24.57H32.2587C33.1978 24.57 33.9565 23.8023 33.9565 22.852V15.9798C33.9565 15.0295 33.1978 14.2618 32.2587 14.2618ZM6.79131 2.2355H27.1652V18.5569H6.79131V2.2355ZM32.2587 22.852H1.69783V15.9798H5.09348V18.5569H3.905C3.6238 18.5569 3.39565 18.7501 3.39565 18.9864V19.8454C3.39565 20.0816 3.6238 20.2749 3.905 20.2749H30.0515C30.3327 20.2749 30.5609 20.0816 30.5609 19.8454V18.9864C30.5609 18.7501 30.3327 18.5569 30.0515 18.5569H28.8631V15.9798H32.2587V22.852Z" fill="white"/>
<path d="M33.4765 20.1395H34.0589L32.824 21.6164L33.4765 20.1395ZM25.1437 21.6164L23.9089 20.1395H24.4912L25.1437 21.6164ZM20.8057 18.7589L20.8053 18.7597C20.6098 19.0668 20.6483 19.4606 20.886 19.7261L28.362 28.2206L28.3636 28.2224C28.6926 28.5925 29.2752 28.5925 29.6042 28.2224L29.6058 28.2206L37.0818 19.7261C37.3249 19.4545 37.3489 19.0637 37.167 18.7669L37.1671 18.7668L37.162 18.7589L34.4456 14.5071C34.4454 14.5067 34.4452 14.5064 34.445 14.5061C34.2914 14.2646 34.0248 14.1232 33.7442 14.1232H24.2236C23.943 14.1232 23.6764 14.2646 23.5228 14.5061C23.5226 14.5064 23.5224 14.5067 23.5222 14.5071L20.8057 18.7589ZM32.3921 16.0637H33.0977L34.4894 18.3034H33.456L32.3921 16.0637ZM27.7554 16.0637H30.2122L31.276 18.3034H26.6896L27.7554 16.0637ZM23.4784 18.3034L24.8701 16.0637H25.5756L24.5117 18.3034H23.4784ZM28.9837 25.3157L26.6478 20.1395H31.3176L28.9837 25.3157Z" fill="white" stroke="#293748"/>
</svg>
