<svg width="36" height="29" viewBox="0 0 36 29" fill="none" xmlns="http://www.w3.org/2000/svg">
<path d="M3.75758 0C2.76101 0 1.80525 0.395886 1.10057 1.10057C0.395886 1.80525 0 2.76101 0 3.75758V22.5455C0 23.542 0.395886 24.4978 1.10057 25.2025C1.80525 25.9071 2.76101 26.303 3.75758 26.303H22.5455C23.542 26.303 24.4978 25.9071 25.2025 25.2025C25.9071 24.4978 26.303 23.542 26.303 22.5455V3.75758C26.303 2.76101 25.9071 1.80525 25.2025 1.10057C24.4978 0.395886 23.542 0 22.5455 0H3.75758ZM15.0303 15.0303H11.2727V11.2727H15.0303V15.0303ZM7.51515 15.0303H3.75758V11.2727H7.51515V15.0303ZM3.75758 22.5455V18.7879H7.51515V22.5455H3.75758ZM11.2727 22.5455V18.7879H15.0303V22.5455H11.2727ZM18.7879 22.5455V18.7879H22.5455V15.0303H18.7879V11.2727H22.5455V7.51515H3.75758V3.75758H22.5455V22.5455H18.7879Z" fill="white"/>
<path d="M31.4765 20.1395H32.0589L30.824 21.6164L31.4765 20.1395ZM23.1437 21.6164L21.9089 20.1395H22.4912L23.1437 21.6164ZM18.8057 18.7589L18.8053 18.7597C18.6098 19.0668 18.6483 19.4606 18.886 19.7261L26.362 28.2206L26.3636 28.2224C26.6926 28.5925 27.2752 28.5925 27.6042 28.2224L27.6058 28.2206L35.0818 19.7261C35.3249 19.4545 35.3489 19.0637 35.167 18.7669L35.1671 18.7668L35.162 18.7589L32.4456 14.5071C32.4454 14.5067 32.4452 14.5064 32.445 14.5061C32.2914 14.2646 32.0248 14.1232 31.7442 14.1232H22.2236C21.943 14.1232 21.6764 14.2646 21.5228 14.5061C21.5226 14.5064 21.5224 14.5067 21.5222 14.5071L18.8057 18.7589ZM30.3921 16.0637H31.0977L32.4894 18.3034H31.456L30.3921 16.0637ZM25.7554 16.0637H28.2122L29.276 18.3034H24.6896L25.7554 16.0637ZM21.4784 18.3034L22.8701 16.0637H23.5756L22.5117 18.3034H21.4784ZM26.9837 25.3157L24.6478 20.1395H29.3176L26.9837 25.3157Z" fill="white" stroke="#293748"/>
</svg>
