<svg width="278" height="451" viewBox="0 0 278 451" fill="none" xmlns="http://www.w3.org/2000/svg">
<g opacity="0.1" clip-path="url(#clip0)">
<path d="M165.607 96.8739L195.121 45.7543C196.559 43.2632 199.724 42.398 202.19 43.8219L228.983 59.2906C231.449 60.7145 232.283 63.8882 230.844 66.3793L201.33 117.499C199.892 119.99 196.727 120.855 194.261 119.431L167.468 103.963C165.002 102.539 164.169 99.365 165.607 96.8739ZM196.245 112.558L224.022 64.4453L200.207 50.6953L172.429 98.8079L196.245 112.558ZM164.494 126.302L161.022 132.316L140.183 120.284C135.251 117.437 133.584 111.089 136.46 106.107L188.544 15.8961C191.42 10.9138 197.751 9.1835 202.683 12.0312L223.522 24.0625L220.049 30.0766C218.132 33.398 219.243 37.6297 222.531 39.5281C225.819 41.4266 230.04 40.273 231.957 36.9516L235.43 30.9375L256.268 42.9687C261.201 45.8165 262.867 52.1638 259.991 57.1461L207.908 147.357C205.031 152.339 198.701 154.07 193.768 151.222L172.93 139.191L176.402 133.177C178.319 129.855 177.208 125.624 173.92 123.725C170.632 121.827 166.412 122.98 164.494 126.302ZM182.356 136.614L197.241 145.208C198.882 146.156 200.996 145.578 201.954 143.92L254.037 53.7086C254.994 52.0504 254.438 49.9306 252.796 48.9828L237.911 40.3891C234.082 47.0215 225.625 49.3331 219.059 45.5422C212.493 41.7513 210.266 33.2715 214.096 26.6391L199.211 18.0453C197.569 17.0975 195.455 17.6754 194.498 19.3336L142.414 109.545C141.457 111.203 142.014 113.323 143.655 114.27L158.54 122.864C162.369 116.232 170.826 113.92 177.392 117.711C183.958 121.502 186.185 129.982 182.356 136.614Z" fill="white"/>
</g>
<g opacity="0.1" clip-path="url(#clip1)">
<path d="M70.8454 258.594L37.7582 225.507C36.1458 223.894 36.1328 221.293 37.729 219.697L55.0706 202.356C56.6668 200.759 59.2679 200.772 60.8803 202.385L93.9674 235.472C95.5798 237.084 95.5929 239.685 93.9966 241.282L76.6551 258.623C75.0588 260.219 72.4577 260.206 70.8454 258.594ZM89.1406 238.352L57.9998 207.212L42.5851 222.626L73.7259 253.767L89.1406 238.352ZM93.15 265.484L97.0426 269.377L83.5547 282.864C80.3622 286.057 75.1601 286.031 71.9353 282.806L13.5462 224.417C10.3215 221.192 10.2953 215.99 13.4879 212.798L26.9757 199.31L30.8683 203.202C33.0181 205.352 36.4863 205.37 38.6146 203.241C40.7429 201.113 40.7255 197.645 38.5757 195.495L34.6831 191.602L48.1709 178.114C51.3635 174.922 56.5656 174.948 59.7904 178.173L118.179 236.562C121.404 239.787 121.43 244.989 118.238 248.181L104.75 261.669L100.857 257.777C98.7075 255.627 95.2394 255.609 93.111 257.738C90.9827 259.866 91.0002 263.334 93.15 265.484ZM104.711 253.923L114.345 244.289C115.408 243.226 115.399 241.489 114.326 240.416L55.9367 182.027C54.8634 180.953 53.1261 180.945 52.0635 182.007L42.4294 191.641C46.7222 195.934 46.7571 202.884 42.5072 207.134C38.2573 211.384 31.3075 211.349 27.0146 207.056L17.3805 216.69C16.3179 217.753 16.3267 219.49 17.3999 220.563L75.789 278.952C76.8622 280.026 78.5996 280.034 79.6621 278.972L89.2963 269.338C85.0035 265.045 84.9686 258.095 89.2184 253.845C93.4683 249.595 100.418 249.63 104.711 253.923Z" fill="white"/>
</g>
<g opacity="0.1" clip-path="url(#clip2)">
<path d="M152.762 409.415L173.017 382.675C174.004 381.372 175.85 381.108 177.14 382.085L191.155 392.701C192.445 393.678 192.691 395.526 191.704 396.83L171.449 423.57C170.462 424.873 168.616 425.137 167.326 424.16L153.31 413.544C152.02 412.567 151.775 410.718 152.762 409.415ZM168.93 420.424L187.993 395.257L175.536 385.82L156.472 410.988L168.93 420.424ZM150.055 425.931L147.672 429.077L136.771 420.82C134.191 418.865 133.7 415.168 135.674 412.562L171.418 365.373C173.392 362.767 177.084 362.239 179.664 364.193L190.565 372.45L188.182 375.596C186.866 377.333 187.193 379.798 188.913 381.101C190.633 382.404 193.095 382.052 194.411 380.314L196.794 377.168L207.694 385.425C210.274 387.379 210.766 391.076 208.792 393.683L173.047 440.872C171.073 443.478 167.382 444.006 164.801 442.052L153.901 433.795L156.284 430.649C157.6 428.911 157.272 426.447 155.552 425.144C153.832 423.841 151.371 424.193 150.055 425.931ZM159.398 433.008L167.184 438.906C168.043 439.556 169.276 439.38 169.933 438.512L205.677 391.324C206.334 390.456 206.17 389.221 205.311 388.571L197.525 382.673C194.897 386.143 189.965 386.849 186.53 384.247C183.096 381.645 182.439 376.706 185.067 373.237L177.281 367.339C176.422 366.689 175.189 366.865 174.532 367.732L138.788 414.921C138.131 415.789 138.295 417.023 139.154 417.674L146.94 423.572C149.568 420.102 154.5 419.396 157.935 421.998C161.37 424.6 162.026 429.539 159.398 433.008Z" fill="white"/>
</g>
<defs>
<clipPath id="clip0">
<rect width="125" height="110" fill="white" transform="matrix(-0.5 0.866025 0.866025 0.5 181.844 0)"/>
</clipPath>
<clipPath id="clip1">
<rect width="99.0895" height="87.1987" fill="white" transform="matrix(0.707107 0.707107 0.707107 -0.707107 0 226.285)"/>
</clipPath>
<clipPath id="clip2">
<rect width="71.0379" height="62.5133" fill="white" transform="matrix(-0.603803 0.797133 0.797133 0.603803 168.763 355.936)"/>
</clipPath>
</defs>
</svg>
