<svg width="51" height="57" viewBox="0 0 51 57" fill="none" xmlns="http://www.w3.org/2000/svg">
<path d="M43.2683 2.85694L42.8625 1.66246L41.6718 2.0792L37.2314 3.63335L36.0853 4.03449L36.453 5.19176L37.1371 7.3442L26.5869 1.88963L25.9949 1.58354L25.4108 1.90452L7.48879 11.7536L6.84081 12.1097V12.8491V26.1334V27.9022L8.50815 27.3116L15.6992 24.7646L16.5384 24.4673L16.5318 23.577L16.4881 17.7175L26.0367 12.6482L33.1317 16.1107L30.7369 16.9922L29.5814 17.4176L29.9893 18.5793L31.6174 23.2171L32.0338 24.4032L33.2175 23.9802L47.4207 18.9045L48.5794 18.4904L48.1836 17.3253L43.2683 2.85694Z" stroke="white" stroke-width="2.5"/>
<path d="M7.73169 53.8895L8.13789 55.0857L9.3297 54.6669L13.7701 53.1066L14.9143 52.7045L14.547 51.5487L13.8632 49.397L24.4067 54.8507L24.9986 55.1569L25.5827 54.8361L43.5048 44.9931L44.1531 44.6371V43.8975V30.6132V28.8453L42.4863 29.4347L35.3015 31.9756L34.4616 32.2726L34.4683 33.1634L34.5119 39.0231L24.957 44.0983L17.8583 40.634L20.2582 39.7477L21.4125 39.3214L21.0044 38.1606L19.3763 33.529L18.9597 32.3439L17.7767 32.7663L3.57964 37.8358L2.42067 38.2497L2.81638 39.4149L7.73169 53.8895Z" stroke="white" stroke-width="2.5"/>
</svg>
