<svg width="49" height="40" viewBox="0 0 49 40" fill="none" xmlns="http://www.w3.org/2000/svg">
<path d="M23.3921 23.7114L24.4942 25.824L25.606 23.7165L25.037 23.4163C25.606 23.7165 25.606 23.7164 25.606 23.7164L25.6064 23.7156L25.6082 23.7123L25.6156 23.6982L25.6462 23.6406C25.6734 23.5894 25.7142 23.513 25.7677 23.4132C25.8748 23.2136 26.0329 22.9206 26.2362 22.549C26.6426 21.8056 27.229 20.7485 27.9468 19.4967C29.384 16.9904 31.341 13.7163 33.4315 10.6211C35.5366 7.50452 37.7224 4.6521 39.6127 2.92898C40.5731 2.05356 41.3374 1.58264 41.8806 1.4316C42.131 1.36199 42.279 1.37602 42.3625 1.39964C42.4361 1.42047 42.546 1.47216 42.6867 1.64532C45.4173 5.01658 47.1221 9.07679 47.6071 13.3571C48.092 17.6374 47.3375 21.9662 45.4294 25.8444C43.5212 29.7229 40.5361 32.9943 36.8161 35.2788C33.0959 37.5635 28.7933 38.7674 24.405 38.7498C20.0168 38.7322 15.7244 37.4938 12.0233 35.1793C8.32244 32.865 5.36468 29.5698 3.48873 25.6762C1.61287 21.7828 0.894302 17.4482 1.4147 13.1718C1.93508 8.89574 3.67347 4.84942 6.43183 1.5002C6.56961 1.33336 6.6755 1.2858 6.74581 1.26691C6.82692 1.24513 6.97437 1.23263 7.22543 1.3058C7.76916 1.46426 8.53178 1.94505 9.48732 2.82998C11.3681 4.5718 13.5396 7.44142 15.6289 10.5717C17.7041 13.6807 19.6455 16.9659 21.0709 19.4799C21.7828 20.7354 22.3642 21.7955 22.7673 22.5408C22.9688 22.9134 23.1256 23.2073 23.2317 23.4074C23.2848 23.5074 23.3252 23.584 23.3522 23.6353L23.3825 23.693L23.3899 23.7072L23.3917 23.7106L23.3921 23.7113C23.3921 23.7114 23.3921 23.7114 24.0458 23.3704L23.3921 23.7114Z" stroke="white" stroke-width="2.5"/>
</svg>
