<svg width="277" height="451" viewBox="0 0 277 451" fill="none" xmlns="http://www.w3.org/2000/svg">
<g opacity="0.1" clip-path="url(#clip0)">
<path d="M111.5 97.2473L81.9863 46.1277C80.548 43.6366 77.3829 42.7714 74.9167 44.1953L48.124 59.664C45.6578 61.0879 44.8245 64.2616 46.2627 66.7527L75.7766 117.872C77.2149 120.363 80.38 121.229 82.8462 119.805L109.639 104.336C112.105 102.912 112.938 99.7384 111.5 97.2473ZM80.8625 112.931L53.0847 64.8187L76.9004 51.0687L104.678 99.1813L80.8625 112.931ZM112.613 126.675L116.085 132.689L136.924 120.658C141.857 117.81 143.523 111.463 140.647 106.48L88.5633 16.2695C85.6868 11.2872 79.3565 9.55691 74.4241 12.4047L53.5854 24.4359L57.0576 30.45C58.9752 33.7714 57.8641 38.0031 54.5759 39.9015C51.2876 41.8 47.0674 40.6464 45.1497 37.325L41.6775 31.3109L20.8388 43.3422C15.9063 46.1899 14.2397 52.5372 17.1162 57.5195L69.1995 147.73C72.0761 152.713 78.4063 154.443 83.3388 151.595L104.178 139.564L100.705 133.55C98.7876 130.229 99.8987 125.997 103.187 124.098C106.475 122.2 110.695 123.354 112.613 126.675ZM94.7514 136.988L79.8665 145.581C78.2249 146.529 76.1108 145.951 75.1535 144.293L23.0701 54.082C22.1128 52.4238 22.6694 50.304 24.311 49.3562L39.1958 40.7625C43.025 47.3949 51.482 49.7065 58.0481 45.9156C64.6142 42.1247 66.8407 33.6449 63.0115 27.0125L77.8963 18.4187C79.5379 17.4709 81.652 18.0488 82.6094 19.707L134.693 109.918C135.65 111.576 135.093 113.696 133.452 114.644L118.567 123.238C114.738 116.605 106.281 114.293 99.7148 118.084C93.1487 121.875 90.9221 130.355 94.7514 136.988Z" fill="white"/>
</g>
<g opacity="0.1" clip-path="url(#clip1)">
<path d="M206.262 258.967L239.349 225.88C240.961 224.268 240.974 221.667 239.378 220.071L222.036 202.729C220.44 201.133 217.839 201.146 216.227 202.758L183.14 235.845C181.527 237.458 181.514 240.059 183.11 241.655L200.452 258.997C202.048 260.593 204.649 260.58 206.262 258.967ZM187.966 238.726L219.107 207.585L234.522 223L203.381 254.141L187.966 238.726ZM183.957 265.857L180.064 269.75L193.552 283.238C196.745 286.43 201.947 286.404 205.172 283.179L263.561 224.79C266.786 221.566 266.812 216.363 263.619 213.171L250.131 199.683L246.239 203.576C244.089 205.725 240.621 205.743 238.492 203.615C236.364 201.486 236.382 198.018 238.531 195.868L242.424 191.976L228.936 178.488C225.744 175.295 220.541 175.321 217.317 178.546L158.928 236.935C155.703 240.16 155.677 245.362 158.869 248.555L172.357 262.043L176.25 258.15C178.399 256 181.868 255.983 183.996 258.111C186.124 260.239 186.107 263.708 183.957 265.857ZM172.396 254.296L162.762 244.662C161.699 243.6 161.708 241.862 162.781 240.789L221.17 182.4C222.244 181.327 223.981 181.318 225.043 182.38L234.678 192.015C230.385 196.307 230.35 203.257 234.6 207.507C238.85 211.757 245.8 211.722 250.092 207.429L259.727 217.064C260.789 218.126 260.78 219.863 259.707 220.937L201.318 279.326C200.245 280.399 198.507 280.408 197.445 279.345L187.811 269.711C192.104 265.418 192.138 258.468 187.889 254.218C183.639 249.969 176.689 250.003 172.396 254.296Z" fill="white"/>
</g>
<g opacity="0.1" clip-path="url(#clip2)">
<path d="M124.345 409.789L104.09 383.048C103.103 381.745 101.257 381.481 99.9673 382.458L85.9521 393.074C84.6621 394.051 84.4164 395.9 85.4035 397.203L105.658 423.943C106.646 425.246 108.491 425.511 109.782 424.533L123.797 413.917C125.087 412.94 125.332 411.092 124.345 409.789ZM108.177 420.798L89.1137 395.63L101.572 386.194L120.635 411.361L108.177 420.798ZM127.052 426.304L129.435 429.45L140.336 421.193C142.916 419.239 143.407 415.542 141.433 412.936L105.689 365.747C103.715 363.141 100.023 362.612 97.443 364.566L86.5424 372.823L88.9253 375.969C90.2414 377.707 89.9139 380.171 88.1938 381.474C86.4738 382.777 84.0125 382.425 82.6964 380.688L80.3135 377.542L69.4128 385.798C66.8327 387.753 66.3414 391.45 68.3155 394.056L104.06 441.245C106.034 443.851 109.726 444.38 112.306 442.425L123.206 434.168L120.823 431.022C119.507 429.285 119.835 426.82 121.555 425.517C123.275 424.214 125.736 424.567 127.052 426.304ZM117.709 433.381L109.923 439.279C109.064 439.93 107.831 439.753 107.174 438.886L71.43 391.697C70.773 390.83 70.9371 389.595 71.7958 388.944L79.5819 383.047C82.2099 386.516 87.1421 387.222 90.5768 384.62C94.0114 382.019 94.6678 377.08 92.0398 373.61L99.826 367.712C100.685 367.062 101.918 367.238 102.575 368.106L138.319 415.295C138.976 416.162 138.812 417.397 137.953 418.047L130.167 423.945C127.539 420.476 122.607 419.77 119.172 422.371C115.737 424.973 115.081 429.912 117.709 433.381Z" fill="white"/>
</g>
<defs>
<clipPath id="clip0">
<rect width="125" height="110" fill="white" transform="translate(95.2628 0.373413) rotate(60)"/>
</clipPath>
<clipPath id="clip1">
<rect width="99.0895" height="87.1987" fill="white" transform="translate(277.107 226.659) rotate(135)"/>
</clipPath>
<clipPath id="clip2">
<rect width="71.0379" height="62.5133" fill="white" transform="translate(108.344 356.31) rotate(52.8572)"/>
</clipPath>
</defs>
</svg>
