<svg width="60" height="42" viewBox="0 0 60 42" fill="none" xmlns="http://www.w3.org/2000/svg">
<path d="M38.3719 9.99375C38.2219 9.84375 38.0344 9.77812 37.8375 9.77812C37.65 9.77812 37.4531 9.85312 37.3031 9.99375L27.2344 20.0719L22.6875 15.5156C22.5375 15.3656 22.35 15.3 22.1531 15.3C21.9656 15.3 21.7688 15.375 21.6188 15.5156L20.5594 16.575C20.2688 16.8656 20.2688 17.3438 20.5594 17.6344L26.7 23.775C26.85 23.925 27.0375 23.9906 27.2344 23.9906C27.4312 23.9906 27.6188 23.9156 27.7688 23.775L39.4406 12.1031C39.7313 11.8125 39.7313 11.3344 39.4406 11.0437L38.3719 9.99375ZM57 24H51V2.85937C51 1.28437 49.6594 0 48 0H12C10.3406 0 9 1.28437 9 2.85937V24H3C1.34062 24 0 25.3406 0 27V39C0 40.6594 1.34062 42 3 42H57C58.6594 42 60 40.6594 60 39V27C60 25.3406 58.6594 24 57 24ZM12 3H48V31.5H12V3ZM57 39H3V27H9V31.5H6.9C6.40312 31.5 6 31.8375 6 32.25V33.75C6 34.1625 6.40312 34.5 6.9 34.5H53.1C53.5969 34.5 54 34.1625 54 33.75V32.25C54 31.8375 53.5969 31.5 53.1 31.5H51V27H57V39Z" fill="white"/>
</svg>
