<svg width="50" height="50" viewBox="0 0 50 50" fill="none" xmlns="http://www.w3.org/2000/svg">
<circle cx="25" cy="25" r="23.75" stroke="white" stroke-width="2.5"/>
<path fill-rule="evenodd" clip-rule="evenodd" d="M25 44C35.4934 44 44 35.4934 44 25C44 14.5066 35.4934 6 25 6C14.5066 6 6 14.5066 6 25C6 35.4934 14.5066 44 25 44ZM25 44C35.4763 44 44 35.4763 44 25C44 14.5237 35.4763 6 25 6C14.5237 6 6 14.5237 6 25C6 35.4763 14.5237 44 25 44ZM40.8336 22.6013L38.4349 25L40.8328 27.4004C41.0974 27.6651 41.0974 28.0951 40.8328 28.3598L39.8734 29.3191C39.6088 29.5838 39.1788 29.5838 38.9141 29.3191L36.5145 26.9204L32.6763 30.7585L34.5958 32.678L36.0353 31.2386C36.2999 30.974 36.73 30.974 36.9946 31.2386L37.9539 32.1979C38.2186 32.4626 38.2186 32.8926 37.9539 33.1573L36.5145 34.5967L36.9946 35.0768C37.2592 35.3414 37.2592 35.7715 36.9946 36.0361L36.0353 36.9954C35.7706 37.2601 35.3406 37.2601 35.0759 36.9954L34.5958 36.5154L33.1564 37.9548C32.8918 38.2194 32.4617 38.2194 32.1971 37.9548L31.2378 36.9954C30.9731 36.7308 30.9731 36.3008 31.2378 36.0361L32.6772 34.5967L30.7577 32.6772L26.9187 36.5162L29.3183 38.9158C29.5829 39.1804 29.5829 39.6105 29.3183 39.8751L28.3589 40.8345C28.0943 41.0991 27.6642 41.0991 27.3996 40.8345L25 38.4349L22.5987 40.8336C22.3341 41.0983 21.904 41.0983 21.6394 40.8336L20.68 39.8743C20.4154 39.6096 20.4154 39.1796 20.68 38.915L23.0796 36.5154L19.2406 32.6763L17.3211 34.5958L18.7605 36.0353C19.0252 36.2999 19.0252 36.73 18.7605 36.9946L17.8012 37.9539C17.5366 38.2186 17.1065 38.2186 16.8419 37.9539L15.4025 36.5145L14.9224 36.9946C14.6577 37.2592 14.2277 37.2592 13.963 36.9946L13.0037 36.0353C12.7391 35.7706 12.7391 35.3406 13.0037 35.0759L13.4838 34.5958L12.0444 33.1564C11.7797 32.8918 11.7797 32.4617 12.0444 32.1971L13.0037 31.2378C13.2683 30.9731 13.6984 30.9731 13.963 31.2378L15.4025 32.6772L17.322 30.7577L13.4838 26.9195L11.0842 29.3183C10.8196 29.5829 10.3895 29.5829 10.1249 29.3183L9.16554 28.3589C8.90089 28.0943 8.90089 27.6642 9.16554 27.3996L11.5651 25L9.16554 22.6004C8.90089 22.3358 8.90089 21.9057 9.16554 21.6411L10.1274 20.6792C10.3921 20.4146 10.8221 20.4146 11.0867 20.6792L13.4863 23.0779L17.3245 19.2398L15.405 17.3203L13.9656 18.7597C13.7009 19.0243 13.2709 19.0243 13.0062 18.7597L12.0469 17.8004C11.7823 17.5357 11.7823 17.1057 12.0469 16.841L13.4863 15.4016L13.0062 14.9215C12.7416 14.6569 12.7416 14.2268 13.0062 13.9622L13.9656 13.0029C14.2302 12.7382 14.6603 12.7382 14.9249 13.0029L15.405 13.4829L16.8444 12.0435C17.1091 11.7789 17.5391 11.7789 17.8038 12.0435L18.7631 13.0029C19.0277 13.2675 19.0277 13.6975 18.7631 13.9622L17.3237 15.4016L19.2432 17.3211L23.0813 13.4829L20.6817 11.0842C20.4171 10.8196 20.4171 10.3895 20.6817 10.1249L21.6411 9.16554C21.9057 8.90089 22.3358 8.90089 22.6004 9.16554L25 11.5651L27.3996 9.16554C27.6642 8.90089 28.0943 8.90089 28.3589 9.16554L29.3191 10.1283C29.5838 10.3929 29.5838 10.8229 29.3191 11.0876L26.9195 13.4863L30.7585 17.3245L32.678 15.405L31.2386 13.9656C30.974 13.7009 30.974 13.2709 31.2386 13.0062L32.1979 12.0469C32.4626 11.7823 32.8926 11.7823 33.1573 12.0469L34.5967 13.4863L35.0768 13.0062C35.3414 12.7416 35.7715 12.7416 36.0361 13.0062L36.9954 13.9656C37.2601 14.2302 37.2601 14.6603 36.9954 14.9249L36.5154 15.405L37.9548 16.8444C38.2194 17.1091 38.2194 17.5391 37.9548 17.8038L36.9954 18.7631C36.7308 19.0277 36.3008 19.0277 36.0361 18.7631L34.5967 17.3237L32.6772 19.2432L36.5162 23.0813L38.915 20.6826C39.1796 20.4179 39.6096 20.4179 39.8743 20.6826L40.8336 21.6419C41.0983 21.9066 41.0983 22.3366 40.8336 22.6013ZM28.8382 19.2415L25 15.4033L21.1618 19.2423L25 23.0805L28.8382 19.2415ZM19.2415 21.161L15.4033 25L19.2415 28.839L23.0805 25L19.2415 21.161ZM26.9195 25L30.7577 28.8382L34.5967 25L30.7585 21.1618L26.9195 25ZM21.161 30.7577L25 34.5967L28.839 30.7577L25 26.9187L21.161 30.7577Z" fill="white"/>
</svg>
