<svg width="35" height="32" viewBox="0 0 35 32" fill="none" xmlns="http://www.w3.org/2000/svg">
<path d="M18.5825 9.81571H16.4253C16.2187 9.81571 16.0547 9.98748 16.0607 10.1961L16.5165 22.2203C16.5226 22.4166 16.6866 22.5761 16.8811 22.5761H18.1268C18.3213 22.5761 18.4853 22.4228 18.4914 22.2203L18.9471 10.1961C18.9532 9.98748 18.7892 9.81571 18.5825 9.81571ZM17.5009 23.8031C18.4428 23.8031 19.2024 24.5699 19.2024 25.5208C19.2024 26.4717 18.4428 27.2386 17.5009 27.2386C16.559 27.2386 15.7994 26.4717 15.7994 25.5208C15.7994 24.5699 16.559 23.8031 17.5009 23.8031ZM0.395157 26.9932L14.973 1.47236C16.0911 -0.490785 18.9046 -0.490785 20.0288 1.47236L34.6067 26.9932C35.7248 28.9502 34.3271 31.4103 32.0788 31.4103H2.91697C0.680759 31.4103 -0.729019 28.9563 0.395157 26.9932ZM2.91697 29.4471H32.0848C32.8323 29.4471 33.3002 28.6312 32.9295 27.9748L18.3456 2.45393C17.9749 1.80364 17.033 1.7975 16.6623 2.45393L2.07839 27.9748C1.70164 28.6251 2.16954 29.4471 2.91697 29.4471Z" fill="white"/>
</svg>
