<?xml version="1.0" encoding="utf-8"?>
<!-- Generator: Adobe Illustrator 25.0.1, SVG Export Plug-In . SVG Version: 6.00 Build 0)  -->
<svg version="1.1" id="Ebene_1" xmlns="http://www.w3.org/2000/svg" xmlns:xlink="http://www.w3.org/1999/xlink" x="0px" y="0px"
	 width="30px" height="31px" viewBox="0 0 30 31" style="enable-background:new 0 0 30 31;" xml:space="preserve">
<g id="Group">
	<path id="Path" style="opacity:0.8;fill-rule:evenodd;clip-rule:evenodd;fill:#BDCBDA;enable-background:new    ;" d="M28.2,21.5
		c0,5-4.1,9-9.1,9H1.8v-6h17.3c1.7,0,3-1.3,3-3s-1.4-3-3-3H13v-6h6.1c1.7,0,3-1.3,3-3s-1.4-3-3-3H1.8v-6h17.3c5,0,9.1,4,9.1,9
		c0,2.3-0.9,4.4-2.3,6C27.3,17.1,28.2,19.2,28.2,21.5z"/>
	<path id="Shape" style="opacity:0.12;enable-background:new    ;" d="M1.8,24.5h14.8c-3.1,3.6-8.2,6-13.8,6c-0.3,0-0.7,0-1,0V24.5
		L1.8,24.5z M19.7,18.5H14v-6h5.7c0.2,1,0.3,2,0.3,3S20,17.5,19.7,18.5z M16.6,6.5H1.8v-6c0.3,0,0.7,0,1,0
		C8.5,0.5,13.5,2.9,16.6,6.5L16.6,6.5z"/>
	<path id="Path_1_" style="fill:#535A60;" d="M1.8,0.5c8.4,0,15.2,6.7,15.2,15s-6.8,15-15.2,15v-6c5,0,9.1-4,9.1-9s-4.1-9-9.1-9V0.5
		z"/>
</g>
</svg>
