<?xml version="1.0" encoding="utf-8"?>
<!-- Generator: Adobe Illustrator 25.1.0, SVG Export Plug-In . SVG Version: 6.00 Build 0)  -->
<svg version="1.1" id="Ebene_1" xmlns="http://www.w3.org/2000/svg" xmlns:xlink="http://www.w3.org/1999/xlink" x="0px" y="0px"
	 viewBox="0 0 266 100" style="enable-background:new 0 0 266 100;" xml:space="preserve">
<g>
	<polygon style="fill:#FFFFFF;" points="161.5,8.6 153.2,11.5 156.1,21 131.3,8 97.8,26.6 97.8,51.4 111.2,46.7 111.2,34.3 
		131.3,23.5 150.8,32.8 141,36.6 144.1,45 170.8,35.7 	"/>
</g>
<g>
	<polygon style="fill:#FFFFFF;" points="101.3,91.6 109.6,88.7 106.7,79.2 131.3,92 165,73.6 165,48.8 151.6,53.3 151.6,65.7 
		131.3,76.7 112.1,67.2 121.8,63.7 118.7,55 92,64.5 	"/>
</g>
<g style="enable-background:new    ;">
	<g>
		<path style="fill:#FFFFFF;" d="M67.6,13.2h15.5v46.6c0,9.1-2.7,16.1-8.1,21.1c-5.4,5-13,7.4-23,7.4s-17.4-2.5-22.8-7.4
			s-8.1-12-8.1-21.1V13.2h15.5v46.3c0,4.6,1.4,8.3,4.1,11c2.7,2.7,6.6,4.1,11.4,4.1c5,0,8.7-1.4,11.4-4.1c2.7-2.7,4.1-6.4,4.1-11
			V13.2H67.6z"/>
	</g>
</g>
<g style="enable-background:new    ;">
	<g>
		<path style="fill:#FFFFFF;" d="M179.3,10.9h30.8c11.2,0,19.7,3.3,25.4,9.9c5.8,6.6,8.7,15.7,8.7,27.1s-2.9,20.3-8.7,26.9
			c-5.8,6.6-14.3,9.9-25.4,9.9h-30.8V10.9z M194.8,70.9h13.4c7,0,12.2-2.1,15.5-6.4s5-9.9,5-16.8s-1.7-12.6-5-16.8
			c-3.3-4.3-8.5-6.4-15.5-6.4h-13.4V70.9z"/>
	</g>
</g>
</svg>
